<?xml version="1.0" encoding="utf-8"?>
<!-- Generator: Adobe Illustrator 24.0.0, SVG Export Plug-In . SVG Version: 6.00 Build 0)  -->
<svg version="1.1" id="Calque_1" xmlns="http://www.w3.org/2000/svg" xmlns:xlink="http://www.w3.org/1999/xlink" x="0px" y="0px"
	 viewBox="0 0 1000 1000" style="enable-background:new 0 0 1000 1000;" xml:space="preserve">
<style type="text/css">
	.st0{fill:#82589F;}
	.st1{fill:#182C61;}
	.st2{fill:#0C2461;}
	.st3{fill:#FFFFFF;}
	.st4{font-family:'AdobeHeitiStd-Regular-GBpc-EUC-H';}
	.st5{font-size:95.8129px;}
	.st6{fill:none;stroke:#FFFFFF;stroke-miterlimit:10;}
	.st7{fill:none;stroke:#0C2461;stroke-miterlimit:10;}
</style>
<g>
	<g>
		<path class="st3" d="M524.6,99.94H386.26c-8.37,0-15.16,6.79-15.16,15.16v307.79H226.27V115.1c0-8.37-6.79-15.16-15.16-15.16
			H72.77c-8.37,0-15.16,6.79-15.16,15.16v769.15c0,8.37,6.79,15.16,15.16,15.16h138.34c8.37,0,15.16-6.79,15.16-15.16v-307.4H371.1
			v307.4c0,8.37,6.79,15.16,15.16,15.16H524.6c8.37,0,15.16-6.79,15.16-15.16V115.1C539.77,106.72,532.98,99.94,524.6,99.94z"/>
	</g>
	<path class="st3" d="M866.1,658.01c-28.32-50.15-60.31-92.48-91.47-127.46c-13.63-15.29-12.33-37.02,3.23-50.86
		c45.21-40.23,73.06-95.16,73.06-155.72c0-123.37-115.55-223.38-258.09-223.38v446.38v0.38v337.79c0,7.64,7.16,13.84,16,13.83
		l338.8-0.3C939.82,840.73,920.15,753.72,866.1,658.01z"/>
	<text transform="matrix(1 0 0 1 620.6088 876.8914)" class="st2 st4 st5">ネット</text>
	<g>
		<path class="st3" d="M544.93,80.14c8.56,0,15.53,6.96,15.53,15.53v808.01c0,8.56-6.96,15.53-15.53,15.53H368.36
			c-8.56,0-15.53-6.96-15.53-15.53V598.95v-1h-1H247.05h-1v1v304.73c0,8.56-6.96,15.53-15.53,15.53H52.45
			c-8.56,0-15.53-6.96-15.53-15.53V95.67c0-8.56,6.96-15.53,15.53-15.53h178.08c8.56,0,15.53,6.96,15.53,15.53v305.15v1h1h104.79h1
			v-1V95.67c0-8.56,6.96-15.53,15.53-15.53H544.93 M544.93,79.14H368.36c-9.13,0-16.53,7.4-16.53,16.53v305.15H247.05V95.67
			c0-9.13-7.4-16.53-16.53-16.53H52.45c-9.13,0-16.53,7.4-16.53,16.53v808.01c0,9.13,7.4,16.53,16.53,16.53h178.08
			c9.13,0,16.53-7.4,16.53-16.53V598.95h104.79v304.73c0,9.13,7.4,16.53,16.53,16.53h176.56c9.13,0,16.53-7.4,16.53-16.53V95.67
			C561.45,86.54,554.05,79.14,544.93,79.14L544.93,79.14z"/>
	</g>
	<path class="st6" d="M905.32,672.69c-30.95-54.8-65.91-101.06-99.96-139.28c-14.89-16.71-13.47-40.45,3.53-55.58
		c49.41-43.97,79.84-103.99,79.84-170.17c0-134.82-156.6-225.92-312.37-225.92v469.61v0.42v353.97c0,8.35,7.83,15.12,17.48,15.12
		l370.23-0.32C955.56,857.2,964.39,777.29,905.32,672.69z"/>
</g>
</svg>
