<?xml version="1.0" encoding="utf-8"?>
<!-- Generator: Adobe Illustrator 24.0.0, SVG Export Plug-In . SVG Version: 6.00 Build 0)  -->
<svg version="1.1" xmlns="http://www.w3.org/2000/svg" xmlns:xlink="http://www.w3.org/1999/xlink" x="0px" y="0px"
	 viewBox="0 0 750 500" style="enable-background:new 0 0 750 500;" xml:space="preserve">
<style type="text/css">
	.st0{fill:#FFC557;}
	.st1{fill:none;stroke:#FFC557;stroke-miterlimit:10;}
	.st2{fill:none;stroke:#648AC9;stroke-width:0.8104;stroke-miterlimit:10;}
	.st3{fill:none;stroke:#95B1DB;stroke-miterlimit:10;}
	.st4{fill:none;stroke:#95B1DB;stroke-width:2;stroke-miterlimit:10;}
	.st5{fill:#839DC9;}
	.st6{fill:#95B1DB;}
	.st7{opacity:0.65;fill:#849CC7;}
	.st8{fill:#E0EBFB;}
	.st9{fill:#CBD9EC;}
	.st10{clip-path:url(#SVGID_2_);}
	.st11{fill:#F38C84;}
	.st12{fill:#FF768F;}
	.st13{opacity:0.2;fill:#FF768F;}
	.st14{fill:#05093D;}
	.st15{fill:#F38C84;stroke:#F38C84;stroke-width:1.1297;stroke-miterlimit:10;}
	.st16{fill:#CA5C3B;}
	.st17{fill:#FFFFFF;}
	.st18{fill:#3A5785;}
	.st19{fill:none;stroke:#FFFFFF;stroke-width:3;stroke-miterlimit:10;}
	.st20{fill:none;stroke:#FFFFFF;stroke-miterlimit:10;}
	.st21{clip-path:url(#SVGID_4_);}
	.st22{fill:#FBB78B;stroke:#FBB78B;stroke-width:1.2036;stroke-linecap:round;stroke-linejoin:round;stroke-miterlimit:10;}
	.st23{fill:#FBB78B;stroke:#FBB78B;stroke-width:1.1709;stroke-miterlimit:10;}
	.st24{fill:#E6795C;stroke:#E6795C;stroke-width:1.1586;stroke-miterlimit:10;}
	.st25{fill:#EB8383;}
	.st26{fill:#FCCC4F;}
	.st27{clip-path:url(#SVGID_6_);}
	.st28{fill:#FCFCFC;}
	.st29{clip-path:url(#SVGID_8_);}
	.st30{fill:#A34E65;}
	.st31{fill:#FFBBAA;stroke:#FFBBAA;stroke-width:1.2122;stroke-linecap:round;stroke-linejoin:round;stroke-miterlimit:10;}
	.st32{fill:#FFBBAA;stroke:#FFBBAA;stroke-width:1.1792;stroke-miterlimit:10;}
	.st33{fill:#F08992;stroke:#F08992;stroke-width:1.1746;stroke-linecap:round;stroke-linejoin:round;stroke-miterlimit:10;}
	.st34{fill:#FFBBAA;stroke:#FFBBAA;stroke-width:1.1626;stroke-miterlimit:10;}
	.st35{fill:#F08992;}
	.st36{fill:#CEDDF4;}
	.st37{fill:#020F2B;}
	.st38{fill:#F1ABA5;}
	.st39{fill:#EC7165;}
	.st40{fill:#F79288;}
	.st41{fill:#F1A9A5;}
	.st42{fill:#FF6E95;}
	.st43{fill:#2D4773;}
	.st44{fill:none;stroke:#FFFFFF;stroke-width:0.3961;stroke-miterlimit:10;}
	.st45{opacity:0.21;}
	.st46{fill:#C20034;}
	.st47{fill:#D15449;}
	.st48{fill:#FF6B82;}
	.st49{fill:#FFEBF1;}
	.st50{opacity:0.6;fill:#4E7A8F;}
	.st51{fill:#FAFAFA;}
	.st52{fill:#F0A5A9;}
	.st53{fill:#E6777D;}
	.st54{fill:none;stroke:#FFFFFF;stroke-width:0.4846;stroke-miterlimit:10;}
	.st55{fill:#D15868;}
	.st56{fill:none;stroke:#020F2B;stroke-width:0.4846;stroke-miterlimit:10;}
	.st57{fill:#020F2B;stroke:#020F2B;stroke-width:0.5144;stroke-miterlimit:10;}
	.st58{fill:#263C61;}
	.st59{fill:#020F2B;stroke:#1D254A;stroke-width:0;stroke-miterlimit:10;}
	.st60{fill:none;stroke:#1D254A;stroke-width:0.5144;stroke-miterlimit:10;}
	.st61{fill:none;stroke:#1D254A;stroke-width:0.328;stroke-miterlimit:10;}
	.st62{fill:none;stroke:#1D254A;stroke-width:0.3361;stroke-miterlimit:10;}
	.st63{fill:#DAE5F7;}
	.st64{fill:#FFFFFF;stroke:#FFFFFF;stroke-width:0.161;stroke-miterlimit:10;}
	.st65{fill:#D8CFCE;}
	.st66{opacity:0.37;fill:#839DC9;}
	.st67{fill:none;stroke:#7289B5;stroke-width:1.03;stroke-miterlimit:10;}
	.st68{fill:#7289B5;}
	.st69{fill:#1B1A4D;stroke:#1B1A4D;stroke-width:0.7725;stroke-linecap:round;stroke-linejoin:round;stroke-miterlimit:10;}
	.st70{opacity:0.74;fill:#FFFFFF;}
	.st71{fill:none;stroke:#FFD375;stroke-width:2.7834;stroke-miterlimit:10;}
	.st72{fill:none;stroke:#FFD375;stroke-width:3.7378;stroke-linecap:round;stroke-miterlimit:10;}
	.st73{fill:#B4CEF7;}
	.st74{fill:none;stroke:#FFFFFF;stroke-width:0.7004;stroke-miterlimit:10;}
	.st75{fill:none;stroke:#FFFFFF;stroke-width:0.7004;stroke-linecap:round;stroke-miterlimit:10;}
	.st76{opacity:0.57;}
	.st77{clip-path:url(#SVGID_10_);fill:#FFFFFF;stroke:#FFFFFF;stroke-width:0.6619;stroke-miterlimit:10;}
</style>
<g id="BACKGROUND">
</g>
<g id="OBJECTS">
	<g>
		<path class="st0" d="M544.95,167.88c0,2.48-2.01,4.48-4.48,4.48c-2.48,0-4.48-2.01-4.48-4.48c0-2.48,2.01-4.48,4.48-4.48
			C542.94,163.4,544.95,165.41,544.95,167.88z"/>
		<circle class="st1" cx="561.76" cy="189.17" r="3.36"/>
		<path class="st2" d="M643.33,241.4c0,0.95-0.77,1.72-1.72,1.72c-0.95,0-1.72-0.77-1.72-1.72c0-0.95,0.77-1.72,1.72-1.72
			C642.56,239.68,643.33,240.45,643.33,241.4z"/>
		<circle class="st0" cx="244.51" cy="359.25" r="6.23"/>
		<circle class="st0" cx="277.87" cy="176.47" r="3.36"/>
		<circle class="st0" cx="658.5" cy="321.03" r="2.99"/>
		<line class="st3" x1="237.16" y1="407.69" x2="713.04" y2="407.69"/>
		<circle class="st4" cx="265.55" cy="240.72" r="2.61"/>
		<path class="st5" d="M686.15,355.4c0,1.65-1.34,3-3,3c-1.65,0-3-1.34-3-3c0-1.65,1.34-3,3-3
			C684.81,352.4,686.15,353.74,686.15,355.4z"/>
		<path class="st5" d="M700.42,294.22c0,0.87-0.71,1.58-1.58,1.58c-0.87,0-1.58-0.71-1.58-1.58c0-0.87,0.71-1.58,1.58-1.58
			C699.72,292.64,700.42,293.35,700.42,294.22z"/>
	</g>
	<g>
		<g>
			<path class="st6" d="M482.58,409.42H307.27V199.29c0-10.75,8.28-19.91,19.03-19.91l156.28,0.44V409.42z"/>
			<polygon class="st7" points="310.51,409.42 482.58,409.42 482.58,200.69 338.15,181.56 			"/>
		</g>
		<g>
			<path class="st8" d="M555.5,197.84c0-10.34-8.38-18.72-18.72-18.72H343.01v0.13l-18.48-0.09c11.29,0,18.43,7.97,18.43,17.6
				l0.04-0.05v219.28c0,14.48,11.73,26.21,26.21,26.21h142.1l44.95-0.62L555.5,197.84z"/>
			<g>
				<g>
					
						<ellipse transform="matrix(0.7071 -0.7071 0.7071 0.7071 -46.5133 338.5813)" class="st9" cx="385.45" cy="225.44" rx="27.21" ry="27.21"/>
					<g>
						<defs>
							
								<ellipse id="SVGID_1_" transform="matrix(0.7071 -0.7071 0.7071 0.7071 -46.5133 338.5813)" cx="385.45" cy="225.44" rx="27.21" ry="27.21"/>
						</defs>
						<clipPath id="SVGID_2_">
							<use xlink:href="#SVGID_1_"  style="overflow:visible;"/>
						</clipPath>
						<g class="st10">
							<g>
								<path class="st11" d="M452.03,234.04c0.28-1.68,0.42-2.7,0.42-2.7s1.08-9.75-3.19-16.09c-0.63-0.93,1.34,1.96,1.34,1.96
									s-2.79-4.07-3.47-4.4c-0.68-0.33,1.87,4.21,1.87,4.21s-2.81-4.85-3.63-4.79c-0.82,0.06,1.4,5.67,1.4,5.67
									s-1.71-6.17-2.53-6.17c-0.91,0,0.54,14.53-1.05,12.82c-0.53-0.57-2.85-4.54-4.02-4.3c-1.17,0.24,4.32,9.18,4.32,9.18l0,0
									c0.11,0.28,0,0.71-0.11,0.99L452.03,234.04z"/>
								<g>
									<path class="st12" d="M442.63,230.12l-3.98,10.47c-2.71,6.76-9.51,13.73-15.8,11.45l-20.09-7.29
										c-2.28-1.1-4.64-1.88-6.87-2.09c-0.14-0.05-0.22-0.08-0.22-0.08l-5.5-2.69l-12.01,2.27l-4.26,3.17
										c-10.69,2.05-33.4,9.24-33.4,9.24c4.69,3.32,8.74,9.37,8.74,9.37s-0.88,1.44-2.11,3.46c3.21,4.05,6.78,8.21,12.45,10.7
										c1.3,0.57,3.95,1.2,5.57,1.69l-4.08,42.25l44.26,0.71c0,0,6.75-30.06,8.04-49.29l0.79,0.3c10.33,3.63,21.7-0.06,29.52-8.9
										c6.38-7.21,9.53-30.36,9.53-30.36L442.63,230.12z"/>
									<path class="st13" d="M365.14,279.79c-1.62-0.49-4.27-1.12-5.57-1.69c-5.68-2.49-9.24-6.65-12.45-10.7
										c1.23-2.02,2.11-3.46,2.11-3.46L365.14,279.79z"/>
									<path class="st13" d="M413.37,273.51l-28.67,49.05l20.63,0.19C405.33,322.75,412.36,290.15,413.37,273.51z"/>
									<line class="st12" x1="440.27" y1="236.37" x2="451.9" y2="241.76"/>
								</g>
							</g>
							<g>
								<g>
									<path class="st11" d="M389.54,229.4l1.8,13.07c0,0-17.27,13.92-16.26,2.73l2.19-15.34L389.54,229.4z"/>
									<path class="st14" d="M388.39,215.87l1.51,14.44c0,0-14.37,17.81-13.11,0.4l3.05-15.26L388.39,215.87z"/>
								</g>
								<g>
									<g>
										<g>
											<path class="st15" d="M373.38,222.16l2.49-0.7l0.58,2.97l-2.49,0.7c-0.77,0.22-1.52-0.27-1.68-1.09l0,0
												C372.12,223.22,372.61,222.38,373.38,222.16z"/>
											<path class="st16" d="M373.6,222.91l1.03-0.29l0.24,1.23l-1.03,0.29c-0.32,0.09-0.63-0.11-0.69-0.45l0,0
												C373.08,223.35,373.29,223,373.6,222.91z"/>
										</g>
										<g>
											<path class="st15" d="M393.08,221.37l-2.54,0.35l-0.21-3.05l2.54-0.35c0.78-0.11,1.46,0.49,1.52,1.33l0,0
												C394.45,220.49,393.87,221.26,393.08,221.37z"/>
											<path class="st16" d="M392.98,219.29l-1.05,0.12l0.07,1.26l1.05-0.12c0.32-0.04,0.57-0.35,0.55-0.7l0,0
												C393.58,219.51,393.3,219.26,392.98,219.29z"/>
										</g>
										<path class="st15" d="M383.44,232.64l-0.05,0.01c-6,0.25-8.54-3.78-8.64-8.89l-0.01-0.39c-0.1-5.11,2.67-13.27,7.4-13.65
											l-0.01-0.05c4.73-0.37,9.65,7.25,9.75,12.35l0.01,0.39C391.98,227.52,390.17,232.21,383.44,232.64z"/>
									</g>
									<g>
										<path class="st17" d="M383.88,229.31L383.88,229.31c-2.09,0.19-3.82-1.12-3.87-2.92l-0.01-0.25l7.55-0.68l0.01,0.25
											C387.61,227.51,385.96,229.12,383.88,229.31z"/>
										<path class="st14" d="M381.61,221.7c0,0.37-0.22,0.68-0.49,0.68c-0.27,0-0.5-0.3-0.5-0.67c0-0.37,0.22-0.68,0.49-0.68
											C381.39,221.03,381.61,221.33,381.61,221.7z"/>
										<path class="st14" d="M386.06,221.23c0,0.37-0.22,0.68-0.5,0.68c-0.27,0-0.49-0.31-0.49-0.68c0-0.37,0.22-0.68,0.5-0.68
											C385.84,220.55,386.06,220.85,386.06,221.23z"/>
										<path class="st16" d="M384.44,224.46l-1.75,0.09c-0.22,0.01-0.37-0.25-0.3-0.5l0.68-2.19c0.09-0.28,0.4-0.31,0.53-0.05
											l1.07,2.1C384.8,224.14,384.67,224.45,384.44,224.46z"/>
										<path class="st14" d="M378.79,219.81c-0.49,0.42,0.15-1.3,0.85-1.57c0.7-0.26,1.45,0.01,1.67,0.61
											C381.31,218.85,379.96,218.8,378.79,219.81z"/>
										<path class="st14" d="M386.92,218.48c0.57,0.3-0.44-1.23-1.18-1.33c-0.74-0.1-1.41,0.34-1.49,0.98
											C384.25,218.12,385.56,217.76,386.92,218.48z"/>
									</g>
									<path class="st14" d="M390.56,212.44c-0.06-0.13-0.12-0.26-0.18-0.38c0.61-0.28,0.97-0.46,0.97-0.46
										s-0.71-10.17-1.87-10.33c-0.45-0.06-12.93,2.87-16.07,11.15c-0.09,0.22-0.07,0.44,0.02,0.64
										c-0.08,0.17-0.15,0.33-0.21,0.51c-0.47,1.27-0.53,2.67-0.35,3.99c0.09,0.63,1.23,4.22,1.81,4.28
										c0.26,0.03,1.69-4.62,2.55-7.17c1.43,0.18,3.11,0.2,4.8-0.03c1.92-0.26,3.83-0.82,5.43-1.39c1.2,1.62,3.74,4.87,4.17,4.88
										C392.04,218.14,390.94,213.32,390.56,212.44z"/>
								</g>
							</g>
						</g>
					</g>
				</g>
				<g>
					<path class="st18" d="M426.54,205.57l0.49,1.5c0.07,0.21,0.26,0.35,0.48,0.35h1.58c0.49,0,0.69,0.63,0.3,0.92l-1.28,0.93
						c-0.18,0.13-0.25,0.36-0.18,0.57l0.49,1.5c0.15,0.47-0.38,0.85-0.78,0.57l-1.28-0.93c-0.18-0.13-0.42-0.13-0.6,0l-1.28,0.93
						c-0.4,0.29-0.93-0.1-0.78-0.57l0.49-1.5c0.07-0.21-0.01-0.44-0.18-0.57l-1.28-0.93c-0.4-0.29-0.19-0.92,0.3-0.92h1.58
						c0.22,0,0.41-0.14,0.48-0.35l0.49-1.5C425.73,205.1,426.39,205.1,426.54,205.57z"/>
					<path class="st18" d="M436.88,205.57l0.49,1.5c0.07,0.21,0.26,0.35,0.48,0.35h1.58c0.49,0,0.69,0.63,0.3,0.92l-1.28,0.93
						c-0.18,0.13-0.25,0.36-0.18,0.57l0.49,1.5c0.15,0.47-0.38,0.85-0.78,0.57l-1.28-0.93c-0.18-0.13-0.42-0.13-0.6,0l-1.28,0.93
						c-0.4,0.29-0.93-0.1-0.78-0.57l0.49-1.5c0.07-0.21-0.01-0.44-0.18-0.57l-1.28-0.93c-0.4-0.29-0.19-0.92,0.3-0.92h1.58
						c0.22,0,0.41-0.14,0.48-0.35l0.49-1.5C436.06,205.1,436.72,205.1,436.88,205.57z"/>
					<path class="st18" d="M447.21,205.57l0.49,1.5c0.07,0.21,0.26,0.35,0.48,0.35h1.58c0.49,0,0.69,0.63,0.3,0.92l-1.28,0.93
						c-0.18,0.13-0.25,0.36-0.18,0.57l0.49,1.5c0.15,0.47-0.38,0.85-0.78,0.57l-1.28-0.93c-0.18-0.13-0.42-0.13-0.6,0l-1.28,0.93
						c-0.4,0.29-0.93-0.1-0.78-0.57l0.49-1.5c0.07-0.21-0.01-0.44-0.18-0.57l-1.28-0.93c-0.4-0.29-0.19-0.92,0.3-0.92h1.58
						c0.22,0,0.41-0.14,0.48-0.35l0.49-1.5C446.4,205.1,447.06,205.1,447.21,205.57z"/>
					<path class="st18" d="M457.54,205.57l0.49,1.5c0.07,0.21,0.26,0.35,0.48,0.35h1.58c0.49,0,0.69,0.63,0.3,0.92l-1.28,0.93
						c-0.18,0.13-0.25,0.36-0.18,0.57l0.49,1.5c0.15,0.47-0.38,0.85-0.78,0.57l-1.28-0.93c-0.18-0.13-0.42-0.13-0.6,0l-1.28,0.93
						c-0.4,0.29-0.93-0.1-0.78-0.57l0.49-1.5c0.07-0.21-0.01-0.44-0.18-0.57l-1.28-0.93c-0.4-0.29-0.19-0.92,0.3-0.92h1.58
						c0.22,0,0.41-0.14,0.48-0.35l0.49-1.5C456.73,205.1,457.39,205.1,457.54,205.57z"/>
					<path class="st9" d="M467.87,205.57l0.49,1.5c0.07,0.21,0.26,0.35,0.48,0.35h1.58c0.49,0,0.69,0.63,0.3,0.92l-1.28,0.93
						c-0.18,0.13-0.25,0.36-0.18,0.57l0.49,1.5c0.15,0.47-0.38,0.85-0.78,0.57l-1.28-0.93c-0.18-0.13-0.42-0.13-0.6,0l-1.28,0.93
						c-0.4,0.29-0.93-0.1-0.78-0.57l0.49-1.5c0.07-0.21-0.01-0.44-0.18-0.57l-1.28-0.93c-0.4-0.29-0.19-0.92,0.3-0.92h1.58
						c0.22,0,0.41-0.14,0.48-0.35l0.49-1.5C467.06,205.1,467.72,205.1,467.87,205.57z"/>
				</g>
				<path class="st17" d="M475.94,222.45h-54.22c-1.79,0-3.24-1.45-3.24-3.24l0,0c0-1.79,1.45-3.24,3.24-3.24h54.22
					c1.79,0,3.24,1.45,3.24,3.24l0,0C479.18,221,477.73,222.45,475.94,222.45z"/>
				<rect x="513.96" y="229.12" class="st19" width="20.42" height="20.42"/>
				<line class="st20" x1="353.59" y1="262.99" x2="532.89" y2="262.99"/>
				<line class="st19" x1="418.83" y1="230.62" x2="499.52" y2="230.62"/>
				<line class="st19" x1="418.83" y1="239.58" x2="499.52" y2="239.58"/>
				<line class="st19" x1="418.83" y1="248.55" x2="499.52" y2="248.55"/>
			</g>
			<g>
				<g>
					
						<ellipse transform="matrix(0.7071 -0.7071 0.7071 0.7071 -101.4521 361.3377)" class="st9" cx="385.45" cy="303.13" rx="27.21" ry="27.21"/>
					<g>
						<defs>
							
								<ellipse id="SVGID_3_" transform="matrix(0.9724 -0.2334 0.2334 0.9724 -60.1341 98.3769)" cx="385.65" cy="303.3" rx="27.21" ry="27.21"/>
						</defs>
						<clipPath id="SVGID_4_">
							<use xlink:href="#SVGID_3_"  style="overflow:visible;"/>
						</clipPath>
						<g class="st21">
							<g>
								<g>
									<g>
										<path class="st14" d="M376.12,289.17c0.52-2.58,2.08-7.41,6.24-8.46c4.03-1.02,7.58-0.76,11.5,1.96
											c7.58,5.26,2.95,32.43,2.95,32.43s-2.86,6.19-23.79-1.9C373.01,313.19,375.42,292.58,376.12,289.17z"/>
									</g>
									<g>
										<path class="st22" d="M379.54,298.93c0,0-2,15.58-2.2,16.84c0,0,6.75,8.05,13.66,1.13c0,0-1.17-3.78-3.29-13.51
											L379.54,298.93z"/>
										<path class="st14" d="M385,320.52c0,0-0.66,3.3,6.25-3.62c0,0-0.57-3.13-1.03-4.89L385,320.52z"/>
										<path class="st14" d="M388.24,303.53c-0.56,2.04-4.04,3.74-5.97,3.33c-2.35-0.5-3.39-4.68-3.16-6.4
											c0.19-1.45,4.2-2.23,6.1-1.71C387.1,299.27,388.8,301.49,388.24,303.53z"/>
									</g>
									<g>
										<g>
											<g>
												<path class="st23" d="M376.53,291.16l2.7,0.47l-0.53,3.02l-2.7-0.47c-0.83-0.15-1.39-0.94-1.24-1.77v0
													C374.9,291.58,375.69,291.02,376.53,291.16z"/>
												<path class="st24" d="M376.28,291.95l1.12,0.19l-0.22,1.25l-1.12-0.2c-0.34-0.06-0.57-0.39-0.51-0.73l0,0
													C375.61,292.12,375.94,291.89,376.28,291.95z"/>
											</g>
											<g>
												<path class="st23" d="M394.16,297.49l-2.62-0.82l0.92-2.92l2.62,0.82c0.81,0.25,1.25,1.11,1,1.92l0,0
													C395.82,297.3,394.96,297.75,394.16,297.49z"/>
												<path class="st24" d="M394.85,295.4l-1.08-0.36l-0.4,1.2l1.08,0.36c0.33,0.11,0.69-0.07,0.8-0.4l0,0
													C395.36,295.87,395.18,295.51,394.85,295.4z"/>
											</g>
											<path class="st23" d="M388.67,285.11L388.67,285.11c4.86,1.54,6.77,6.6,5.23,11.46l-0.12,0.37
												c-1.54,4.86-6.77,7.98-10.83,6.62l-0.03-0.02c-3.17-1.23-7.4-7.18-5.86-12.04l0.12-0.37
												C378.73,286.27,383.81,283.57,388.67,285.11z"/>
										</g>
										<g>
											<path class="st17" d="M383.91,300.02l0.36,0.09c1.26,0.3,2.52-0.48,2.82-1.73l0,0l-4.91-1.17l0,0
												C381.87,298.46,382.65,299.72,383.91,300.02z"/>
											<path class="st14" d="M386.81,295.18c-0.09,0.36,0.06,0.7,0.33,0.76c0.27,0.06,0.56-0.17,0.64-0.53
												c0.09-0.36-0.06-0.7-0.33-0.76C387.19,294.58,386.9,294.82,386.81,295.18z"/>
											<path class="st14" d="M383,294.25c-0.11,0.35,0.01,0.7,0.28,0.79c0.26,0.08,0.57-0.13,0.68-0.48
												c0.11-0.35-0.01-0.7-0.28-0.79C383.42,293.69,383.11,293.91,383,294.25z"/>
											<path class="st25" d="M384.2,296.71l1.28,0.35c0.16,0.04,0.32-0.13,0.3-0.33l-0.14-1.77c-0.02-0.22-0.24-0.3-0.38-0.12
												l-1.14,1.42C383.99,296.41,384.04,296.66,384.2,296.71z"/>
											<path class="st14" d="M382.2,292.5c-0.41,0.13,0.44-0.76,0.94-0.74c0.5,0.02,0.89,0.39,0.87,0.82
												C384.01,292.58,383.19,292.18,382.2,292.5z"/>
											<path class="st14" d="M389.27,294.15c0.31,0.3-0.04-0.88-0.49-1.09c-0.45-0.21-0.97-0.06-1.15,0.33
												C387.63,293.4,388.54,293.42,389.27,294.15z"/>
										</g>
									</g>
									<g>
										<path class="st14" d="M383.01,284.57c-3.68,6.09,12.05,9.79,12.05,9.79s2.5-11.83-10.6-12.18
											C376,281.96,383.37,283.97,383.01,284.57z"/>
										<path class="st14" d="M384.13,284.42c0,0-3.8,5.4-4.77,6.32c-1.1,1.05-2.83-0.17-2.83-0.17S377.08,282.14,384.13,284.42z"
											/>
									</g>
									<g>
										<g>
											<path class="st26" d="M398.43,301.62c0,1.76-1.43,3.19-3.19,3.19c-1.76,0-3.19-1.43-3.19-3.19
												c0-1.76,1.43-3.19,3.19-3.19C397,298.43,398.43,299.86,398.43,301.62z"/>
											<path class="st26" d="M395.39,298.01c0,0.35-0.29,0.64-0.64,0.64c-0.35,0-0.64-0.29-0.64-0.64
												c0-0.35,0.29-0.64,0.64-0.64C395.1,297.37,395.39,297.66,395.39,298.01z"/>
										</g>
										<g>
											<path class="st26" d="M377.04,299.27c-0.85,1.55-2.79,2.11-4.34,1.26c-1.55-0.85-2.11-2.79-1.26-4.34
												c0.85-1.55,2.79-2.11,4.34-1.26C377.32,295.78,377.89,297.72,377.04,299.27z"/>
											<path class="st26" d="M376.11,294.63c-0.17,0.31-0.56,0.42-0.87,0.25c-0.31-0.17-0.42-0.56-0.25-0.87
												c0.17-0.31,0.56-0.42,0.87-0.25C376.17,293.94,376.28,294.32,376.11,294.63z"/>
										</g>
									</g>
								</g>
								<g>
									<g>
										<path class="st26" d="M412.19,333.43l-6.87-16.9c-2.37-3.69-4.55-4.75-7.49-4.34c-0.94,0.13-1.73,0.4-2.41,0.77
											l-4.75,0.94c-6.86,4.65-12.96-2.14-12.96-2.14c-5.25-4.15-16.48,3.77-16.48,3.77l1.28,7.29c0,0,4.84,18.1,4.87,18.71
											c0.3,5.68-0.07,15.56,0.01,15.41c0.08-0.15,30.54,3.92,30.77,3.47c0.23-0.45,0.28-3.87,0.83-16.31
											c0.07-1.63,0.1-3.25,0.1-4.84L412.19,333.43z"/>
										<g>
											<defs>
												<path id="SVGID_5_" d="M412.19,333.43l-6.87-16.9c-2.37-3.69-4.55-4.75-7.49-4.34c-0.94,0.13-1.73,0.4-2.41,0.77
													l-4.75,0.94c-6.86,4.65-12.96-2.14-12.96-2.14c-5.25-4.15-18.37,3.77-18.37,3.77l3.17,7.29c0,0,4.84,18.1,4.87,18.71
													c0.3,5.68-0.07,15.56,0.01,15.41c0.08-0.15,30.54,3.92,30.77,3.47c0.23-0.45,0.28-3.87,0.83-16.31
													c0.07-1.63,0.1-3.25,0.1-4.84L412.19,333.43z"/>
											</defs>
											<clipPath id="SVGID_6_">
												<use xlink:href="#SVGID_5_"  style="overflow:visible;"/>
											</clipPath>
											<g class="st27">
												<g>
													<g>
														<path class="st17" d="M382.84,358.04c-9.08-7.3-18.75-16.3-19.38-28.74c-0.25,0.14-0.49,0.28-0.74,0.42
															c7.05,3.04,13.9,6.27,18.8,12.41c2.45,3.07,4.58,6.47,6.49,9.9c1.92,3.47,3.48,7.11,4.28,11.01
															c0.13,0.62,1.07,0.36,0.95-0.26c-0.82-3.97-2.42-7.71-4.38-11.24c-1.87-3.38-3.98-6.71-6.37-9.75
															c-5.01-6.39-11.98-9.76-19.28-12.91c-0.32-0.14-0.76,0.01-0.74,0.42c0.65,12.74,10.36,21.95,19.67,29.44
															C382.63,359.12,383.33,358.43,382.84,358.04L382.84,358.04z"/>
													</g>
												</g>
												<g>
													<g>
														<path class="st17" d="M359.02,306.51c7.8,12.86,16.3,26.19,29.68,33.86c3.45,1.98,7.14,3.49,11,4.43
															c0.44,0.11,0.73-0.34,0.55-0.72c-6.32-13.8-15.53-26.24-26.93-36.26c-3.28-2.88-6.72-5.87-10.78-7.59
															c-0.58-0.24-1.08,0.6-0.5,0.85c3.68,1.56,6.8,4.17,9.8,6.76c2.82,2.44,5.52,5.02,8.07,7.74
															c5.13,5.45,9.68,11.44,13.57,17.84c2.19,3.6,4.15,7.33,5.91,11.16c0.18-0.24,0.37-0.48,0.55-0.72
															c-14.45-3.5-25.04-14.82-33.08-26.72c-2.46-3.63-4.75-7.37-7.02-11.12C359.54,305.47,358.69,305.97,359.02,306.51
															L359.02,306.51z"/>
													</g>
												</g>
												<g>
													<g>
														<path class="st17" d="M392.95,313.5c1.2,5.78,4.13,11.29,8.76,15.05c4.5,3.65,10.34,5.42,16.09,4.59
															c0.62-0.09,0.36-1.04-0.26-0.95c-5.64,0.82-11.46-1.12-15.73-4.84c-4.18-3.64-6.79-8.73-7.91-14.11
															C393.77,312.62,392.83,312.89,392.95,313.5L392.95,313.5z"/>
													</g>
												</g>
											</g>
										</g>
									</g>
								</g>
							</g>
						</g>
					</g>
				</g>
				<g>
					<path class="st18" d="M426.54,283.26l0.49,1.5c0.07,0.21,0.26,0.35,0.48,0.35h1.58c0.49,0,0.69,0.63,0.3,0.92l-1.28,0.93
						c-0.18,0.13-0.25,0.36-0.18,0.57l0.49,1.5c0.15,0.47-0.38,0.85-0.78,0.57l-1.28-0.93c-0.18-0.13-0.42-0.13-0.6,0l-1.28,0.93
						c-0.4,0.29-0.93-0.1-0.78-0.57l0.49-1.5c0.07-0.21-0.01-0.44-0.18-0.57l-1.28-0.93c-0.4-0.29-0.19-0.92,0.3-0.92h1.58
						c0.22,0,0.41-0.14,0.48-0.35l0.49-1.5C425.73,282.8,426.39,282.8,426.54,283.26z"/>
					<path class="st18" d="M436.88,283.26l0.49,1.5c0.07,0.21,0.26,0.35,0.48,0.35h1.58c0.49,0,0.69,0.63,0.3,0.92l-1.28,0.93
						c-0.18,0.13-0.25,0.36-0.18,0.57l0.49,1.5c0.15,0.47-0.38,0.85-0.78,0.57l-1.28-0.93c-0.18-0.13-0.42-0.13-0.6,0l-1.28,0.93
						c-0.4,0.29-0.93-0.1-0.78-0.57l0.49-1.5c0.07-0.21-0.01-0.44-0.18-0.57l-1.28-0.93c-0.4-0.29-0.19-0.92,0.3-0.92h1.58
						c0.22,0,0.41-0.14,0.48-0.35l0.49-1.5C436.06,282.8,436.72,282.8,436.88,283.26z"/>
					<path class="st18" d="M447.21,283.26l0.49,1.5c0.07,0.21,0.26,0.35,0.48,0.35h1.58c0.49,0,0.69,0.63,0.3,0.92l-1.28,0.93
						c-0.18,0.13-0.25,0.36-0.18,0.57l0.49,1.5c0.15,0.47-0.38,0.85-0.78,0.57l-1.28-0.93c-0.18-0.13-0.42-0.13-0.6,0l-1.28,0.93
						c-0.4,0.29-0.93-0.1-0.78-0.57l0.49-1.5c0.07-0.21-0.01-0.44-0.18-0.57l-1.28-0.93c-0.4-0.29-0.19-0.92,0.3-0.92h1.58
						c0.22,0,0.41-0.14,0.48-0.35l0.49-1.5C446.4,282.8,447.06,282.8,447.21,283.26z"/>
					<path class="st18" d="M457.54,283.26l0.49,1.5c0.07,0.21,0.26,0.35,0.48,0.35h1.58c0.49,0,0.69,0.63,0.3,0.92l-1.28,0.93
						c-0.18,0.13-0.25,0.36-0.18,0.57l0.49,1.5c0.15,0.47-0.38,0.85-0.78,0.57l-1.28-0.93c-0.18-0.13-0.42-0.13-0.6,0l-1.28,0.93
						c-0.4,0.29-0.93-0.1-0.78-0.57l0.49-1.5c0.07-0.21-0.01-0.44-0.18-0.57l-1.28-0.93c-0.4-0.29-0.19-0.92,0.3-0.92h1.58
						c0.22,0,0.41-0.14,0.48-0.35l0.49-1.5C456.73,282.8,457.39,282.8,457.54,283.26z"/>
					<path class="st18" d="M467.87,283.26l0.49,1.5c0.07,0.21,0.26,0.35,0.48,0.35h1.58c0.49,0,0.69,0.63,0.3,0.92l-1.28,0.93
						c-0.18,0.13-0.25,0.36-0.18,0.57l0.49,1.5c0.15,0.47-0.38,0.85-0.78,0.57l-1.28-0.93c-0.18-0.13-0.42-0.13-0.6,0l-1.28,0.93
						c-0.4,0.29-0.93-0.1-0.78-0.57l0.49-1.5c0.07-0.21-0.01-0.44-0.18-0.57l-1.28-0.93c-0.4-0.29-0.19-0.92,0.3-0.92h1.58
						c0.22,0,0.41-0.14,0.48-0.35l0.49-1.5C467.06,282.8,467.72,282.8,467.87,283.26z"/>
				</g>
				<path class="st17" d="M475.94,300.14h-54.22c-1.79,0-3.24-1.45-3.24-3.24v0c0-1.79,1.45-3.24,3.24-3.24h54.22
					c1.79,0,3.24,1.45,3.24,3.24l0,0C479.18,298.69,477.73,300.14,475.94,300.14z"/>
				<rect x="513.96" y="306.82" class="st19" width="20.42" height="20.42"/>
				<line class="st20" x1="353.59" y1="340.69" x2="532.89" y2="340.69"/>
				<line class="st19" x1="418.83" y1="308.31" x2="499.52" y2="308.31"/>
				<line class="st19" x1="418.83" y1="317.28" x2="499.52" y2="317.28"/>
				<line class="st19" x1="418.83" y1="326.24" x2="499.52" y2="326.24"/>
			</g>
			<g>
				<g>
					
						<ellipse transform="matrix(0.7071 -0.7071 0.7071 0.7071 -156.743 384.24)" class="st28" cx="385.45" cy="381.33" rx="27.21" ry="27.21"/>
					<g>
						<defs>
							
								<ellipse id="SVGID_7_" transform="matrix(0.7071 -0.7071 0.7071 0.7071 -156.743 384.24)" cx="385.45" cy="381.33" rx="27.21" ry="27.21"/>
						</defs>
						<clipPath id="SVGID_8_">
							<use xlink:href="#SVGID_7_"  style="overflow:visible;"/>
						</clipPath>
						<g class="st29">
							<g>
								<g>
									<path class="st30" d="M381.55,361.43c0,0-10.84,4.24-14.18,15.98c-3.34,11.75-7.98,22.4-16.58,23.04
										c-8.6,0.63-17.63,6.7-18.15,8.57c-0.52,1.87,27.71,42.42,51.24,32.42l3.03-21.37l0.4,16.62c0,0,0.74,3.11,9.06-2.35
										C404.69,428.88,407.25,354.21,381.55,361.43z"/>
									<g>
										<g>
											<path class="st30" d="M387.6,361.01c-4.83-1.19-10.07-0.28-14.24,2.45c-4.34,2.84-6.8,7.29-8.07,12.22
												c-1.38,5.36-1.57,10.99-3.44,16.23c-0.93,2.62-2.32,5.2-4.81,6.62c-2.52,1.43-5.55,1.61-8.38,1.59
												c-3.47-0.02-7.02-0.34-10.41,0.62c-2.98,0.85-5.63,2.65-7.56,5.06c-0.81,1.01,0.62,2.47,1.44,1.44
												c1.72-2.16,3.99-3.78,6.66-4.54c3.05-0.87,6.27-0.6,9.4-0.55c5.22,0.07,10.58-0.81,13.64-5.5
												c5.74-8.81,2.32-21.5,9.98-29.31c3.9-3.98,9.83-5.7,15.24-4.36C388.33,363.29,388.88,361.32,387.6,361.01L387.6,361.01z"
												/>
										</g>
									</g>
								</g>
								<g>
									<path class="st31" d="M390.45,378.97c0,0,1.88,16.26,2.19,17.5c0,0-4.93,5.54-12.09,1.55c0,0,0.78-4.82,2.05-14.77
										L390.45,378.97z"/>
									<path class="st14" d="M383.62,368.55L383.62,368.55c-3.13,0.69-4.24,5.48-3.09,10.68l0.09,0.4
										c1.14,5.19,4.39,7.85,7.06,8.01c2.14,0.13,4.5-4.91,3.36-10.12l0.26-0.8C390.14,371.51,386.75,367.86,383.62,368.55z"/>
								</g>
								<g>
									<g>
										<g>
											<path class="st32" d="M377.25,377.64l2.62-0.89l-0.99-2.92l-2.62,0.89c-0.81,0.27-1.24,1.15-0.96,1.96l0,0
												C375.57,377.48,376.44,377.91,377.25,377.64z"/>
											<path class="st32" d="M395.19,370.38l-2.66,0.76l0.84,2.97l2.66-0.76c0.82-0.23,1.29-1.09,1.06-1.9l0,0
												C396.86,370.62,396.01,370.15,395.19,370.38z"/>
											<path class="st33" d="M395.52,371.14l-1.1,0.31l0.35,1.22l1.1-0.31c0.34-0.1,0.53-0.45,0.44-0.79l0,0
												C396.21,371.24,395.86,371.05,395.52,371.14z"/>
											<path class="st33" d="M376.5,375.55l1.07-0.39l0.43,1.2l-1.07,0.39c-0.33,0.12-0.7-0.05-0.81-0.38l0,0
												C376,376.03,376.17,375.67,376.5,375.55z"/>
										</g>
										<path class="st34" d="M383.65,365.4L383.65,365.4c-5,1.18-7.33,6-6.18,10.86l0.09,0.37c1.15,4.86,7.27,8.71,10.49,7.84
											c3.3-0.9,7.85-7.17,6.7-12.03l-0.09-0.37C393.51,367.21,388.65,364.22,383.65,365.4z"/>
									</g>
									<g>
										<path class="st17" d="M387.1,380.36l0.37-0.1c1.3-0.34,2.07-1.67,1.72-2.97l0,0l-5.06,1.34l0,0
											C384.47,379.93,385.8,380.7,387.1,380.36z"/>
										<path class="st14" d="M387.37,374.5c0.1,0.37,0.4,0.61,0.68,0.53c0.28-0.07,0.43-0.43,0.33-0.8
											c-0.1-0.37-0.4-0.61-0.68-0.53C387.42,373.78,387.27,374.13,387.37,374.5z"/>
										<path class="st14" d="M383.44,375.53c0.07,0.37,0.35,0.63,0.64,0.58c0.28-0.05,0.46-0.4,0.39-0.77
											c-0.07-0.37-0.35-0.63-0.64-0.58C383.54,374.82,383.37,375.16,383.44,375.53z"/>
										<path class="st35" d="M385.74,377.18l1.34-0.31c0.16-0.04,0.22-0.28,0.11-0.45l-1-1.54c-0.13-0.2-0.37-0.15-0.41,0.08
											l-0.34,1.85C385.4,377.02,385.57,377.22,385.74,377.18z"/>
										<path class="st14" d="M381.84,374.32c-0.31,0.32,0.03-0.91,0.49-1.13c0.47-0.22,1-0.08,1.19,0.32
											C383.53,373.51,382.59,373.55,381.84,374.32z"/>
										<path class="st14" d="M389.11,372.36c0.43,0.13-0.47-0.78-0.98-0.75c-0.52,0.03-0.91,0.42-0.88,0.86
											C387.24,372.48,388.08,372.05,389.11,372.36z"/>
									</g>
								</g>
							</g>
							<g>
								<g>
									<path class="st12" d="M392.81,395.55c-1.65,2.64-6.94,4.81-12.09-2.98c0,0-8.34-5.34-14.37,4.55
										c-5.44,8.93-5.5,9.21-5.5,9.21l11.29,9.67l0.78,20.99l32.38,1.06c0,0-3.45-14.98-2.84-17.41
										c0.1-0.41,9.94-16.54,9.94-16.54S399.49,384.82,392.81,395.55z"/>
									<line class="st12" x1="372.69" y1="429.2" x2="403" y2="430.01"/>
								</g>
							</g>
							<path class="st30" d="M376.58,373.88c0,0,5.72-1.78,7.06-8.48c0,0,6.09,5.75,10.9,4.71c0,0-4.8-8.84-11.41-6.11
								S376.64,370.77,376.58,373.88z"/>
						</g>
					</g>
				</g>
				<g>
					<path class="st18" d="M426.54,361.46l0.49,1.5c0.07,0.21,0.26,0.35,0.48,0.35h1.58c0.49,0,0.69,0.63,0.3,0.92l-1.28,0.93
						c-0.18,0.13-0.25,0.36-0.18,0.57l0.49,1.5c0.15,0.47-0.38,0.85-0.78,0.57l-1.28-0.93c-0.18-0.13-0.42-0.13-0.6,0l-1.28,0.93
						c-0.4,0.29-0.93-0.1-0.78-0.57l0.49-1.5c0.07-0.21-0.01-0.44-0.18-0.57l-1.28-0.93c-0.4-0.29-0.19-0.92,0.3-0.92h1.58
						c0.22,0,0.41-0.14,0.48-0.35l0.49-1.5C425.73,360.99,426.39,360.99,426.54,361.46z"/>
					<path class="st18" d="M436.88,361.46l0.49,1.5c0.07,0.21,0.26,0.35,0.48,0.35h1.58c0.49,0,0.69,0.63,0.3,0.92l-1.28,0.93
						c-0.18,0.13-0.25,0.36-0.18,0.57l0.49,1.5c0.15,0.47-0.38,0.85-0.78,0.57l-1.28-0.93c-0.18-0.13-0.42-0.13-0.6,0l-1.28,0.93
						c-0.4,0.29-0.93-0.1-0.78-0.57l0.49-1.5c0.07-0.21-0.01-0.44-0.18-0.57l-1.28-0.93c-0.4-0.29-0.19-0.92,0.3-0.92h1.58
						c0.22,0,0.41-0.14,0.48-0.35l0.49-1.5C436.06,360.99,436.72,360.99,436.88,361.46z"/>
					<path class="st18" d="M447.21,361.46l0.49,1.5c0.07,0.21,0.26,0.35,0.48,0.35h1.58c0.49,0,0.69,0.63,0.3,0.92l-1.28,0.93
						c-0.18,0.13-0.25,0.36-0.18,0.57l0.49,1.5c0.15,0.47-0.38,0.85-0.78,0.57l-1.28-0.93c-0.18-0.13-0.42-0.13-0.6,0l-1.28,0.93
						c-0.4,0.29-0.93-0.1-0.78-0.57l0.49-1.5c0.07-0.21-0.01-0.44-0.18-0.57l-1.28-0.93c-0.4-0.29-0.19-0.92,0.3-0.92h1.58
						c0.22,0,0.41-0.14,0.48-0.35l0.49-1.5C446.4,360.99,447.06,360.99,447.21,361.46z"/>
					<path class="st9" d="M457.54,361.46l0.49,1.5c0.07,0.21,0.26,0.35,0.48,0.35h1.58c0.49,0,0.69,0.63,0.3,0.92l-1.28,0.93
						c-0.18,0.13-0.25,0.36-0.18,0.57l0.49,1.5c0.15,0.47-0.38,0.85-0.78,0.57l-1.28-0.93c-0.18-0.13-0.42-0.13-0.6,0l-1.28,0.93
						c-0.4,0.29-0.93-0.1-0.78-0.57l0.49-1.5c0.07-0.21-0.01-0.44-0.18-0.57l-1.28-0.93c-0.4-0.29-0.19-0.92,0.3-0.92h1.58
						c0.22,0,0.41-0.14,0.48-0.35l0.49-1.5C456.73,360.99,457.39,360.99,457.54,361.46z"/>
					<path class="st9" d="M467.87,361.46l0.49,1.5c0.07,0.21,0.26,0.35,0.48,0.35h1.58c0.49,0,0.69,0.63,0.3,0.92l-1.28,0.93
						c-0.18,0.13-0.25,0.36-0.18,0.57l0.49,1.5c0.15,0.47-0.38,0.85-0.78,0.57l-1.28-0.93c-0.18-0.13-0.42-0.13-0.6,0l-1.28,0.93
						c-0.4,0.29-0.93-0.1-0.78-0.57l0.49-1.5c0.07-0.21-0.01-0.44-0.18-0.57l-1.28-0.93c-0.4-0.29-0.19-0.92,0.3-0.92h1.58
						c0.22,0,0.41-0.14,0.48-0.35l0.49-1.5C467.06,360.99,467.72,360.99,467.87,361.46z"/>
				</g>
				<path class="st17" d="M475.94,378.34h-54.22c-1.79,0-3.24-1.45-3.24-3.24l0,0c0-1.79,1.45-3.24,3.24-3.24h54.22
					c1.79,0,3.24,1.45,3.24,3.24l0,0C479.18,376.89,477.73,378.34,475.94,378.34z"/>
				<rect x="513.96" y="385.01" class="st19" width="20.42" height="20.42"/>
				<line class="st20" x1="353.59" y1="418.88" x2="532.89" y2="418.88"/>
				<line class="st19" x1="418.83" y1="386.51" x2="499.52" y2="386.51"/>
				<line class="st19" x1="418.83" y1="395.47" x2="499.52" y2="395.47"/>
				<line class="st19" x1="418.83" y1="404.44" x2="499.52" y2="404.44"/>
			</g>
		</g>
		<path class="st36" d="M365.79,442.29c7.01,0,17.18-9.42,17.18-16.44h193.49c0,0-0.75,16.44-19.42,16.44H365.79"/>
	</g>
	<g>
		<g>
			<g>
				<path class="st37" d="M616.93,306.68l-13.84-59.62c-0.19-1.56,2.62-5.29,3.99-6.07c3.74-2.14,8.36-2.45,12.57-1.57
					c13.75,2.86,25.44,57.84,23.14,56.51c0,0-20.64,10.78-27.32,6.39"/>
				<path class="st38" d="M618.03,252.23c-0.01,0.21,0.16,0.38,0.37,0.38c0.87,0,2.87-0.19,3.15,2.08c0.29,2.29-1.9,3.58-3.21,3.66
					c-0.38,0.02-1.26,0.1-1.51,0.38c-0.79,0.86-1.16,2.74-1.77,5.08c-1.34,5.18,2.72,7.54,2.72,7.54s-13.56,6.66-13.43-0.02
					c0,0,1.07-12.29,1.01-12.35c-1.06-1.06-5.17-1.51-2.58-10.27c2.39-8.12,8.35-7.54,9.86-7.27
					C613.9,241.66,618.33,241.94,618.03,252.23z"/>
				<path class="st37" d="M608.43,240.63c0,0,8.32,11,9.77,11.91C618.2,252.55,623.88,239.12,608.43,240.63z"/>
				<g>
					<path class="st39" d="M620.56,255.35c0,0-1.36-2.88-3.09,0.98"/>
					<path class="st40" d="M610.49,252.24c-1.12-0.03-2.06,0.87-2.08,1.99c-0.03,1.12,0.87,2.06,1.99,2.08
						c1.12,0.03,2.06-0.87,2.08-1.99C612.51,253.2,611.62,252.27,610.49,252.24z"/>
					<path class="st40" d="M602,253c0.93-0.17,1.65-0.97,1.67-1.96c0.02-0.76-0.38-1.43-0.99-1.79
						C602.69,249.25,601.82,251.5,602,253z"/>
					<path class="st17" d="M603.72,251.95l3.1,1.55c0,0-1.52,1.11-2.34,0.5S603.72,251.95,603.72,251.95z"/>
					<path class="st39" d="M606.1,249.7l-0.49,2.22l-1.08-0.48c-0.2-0.09-0.23-0.36-0.06-0.49L606.1,249.7z"/>
					<path d="M610.08,248.87c0.27,0.38,0.11-0.94-0.33-1.24c-0.44-0.3-1.01-0.24-1.27,0.15
						C608.48,247.77,609.43,247.96,610.08,248.87z"/>
					<path d="M604.22,246.65c-0.45,0.13,0.5-0.8,1.03-0.76c0.53,0.04,0.94,0.45,0.9,0.91C606.16,246.8,605.29,246.35,604.22,246.65z
						"/>
					<path d="M608.29,250.5c-0.15,0.37-0.42,0.61-0.6,0.54c-0.18-0.07-0.2-0.43-0.05-0.8c0.15-0.37,0.42-0.61,0.6-0.54
						C608.41,249.77,608.44,250.13,608.29,250.5z"/>
					<path d="M605.41,249.13c-0.14,0.35-0.4,0.59-0.57,0.52c-0.17-0.07-0.2-0.41-0.05-0.77c0.14-0.35,0.4-0.59,0.57-0.52
						C605.53,248.43,605.56,248.77,605.41,249.13z"/>
					<path d="M605.34,258.98c0,0,3.87,0.74,5.82,0.61C613.12,259.46,603.34,270.7,605.34,258.98z"/>
				</g>
			</g>
			<ellipse class="st5" cx="632.65" cy="455.05" rx="40.41" ry="2.32"/>
			<g>
				<path class="st41" d="M607.47,437.85l-1.41,10c0,0-2.26,6.63-4.35,4.06c-2.1-2.57-4.17-3.92-4.17-3.92l-0.69-10.39
					L607.47,437.85z"/>
				<path class="st40" d="M601.98,438.22l-0.36,13.6c0,0,6.64,1,4.17-3.44l1.45-9.43L601.98,438.22z"/>
				<path class="st41" d="M640.88,437.08l3.11,9.97c0,0,2.37,2.08,3.22,2.02c1.55-0.1,2.37-2.78,2.37-2.78l0.26-9.21H640.88z"/>
				<path class="st40" d="M645.36,434.41l2.18,16.5c0,0,4.46,1.18,1.99-3.26l0.54-12.69L645.36,434.41z"/>
				<path class="st42" d="M596.84,447.93l-8.37,6.79c-0.43,0.32-0.12,0.85,0.49,0.86l12.36,0.1c0.3,0,0.56-0.13,0.66-0.34l0.93-1.91
					c0.27-0.55,0.81-0.6,0.76-0.01l0.46,1.85c-0.02,0.29,2.93,0.21,2.96-0.05c0.16-1.64-0.18-7.01-0.47-8.5
					c-0.04-0.21-0.26-0.39-0.55-0.43l0,0c-0.26-0.04-0.53,0.03-0.69,0.19c-0.83,0.81-3.5,3.24-4.92,2.74
					c-0.95-0.33-2.19-0.92-2.57-1.26C597.61,447.73,597.13,447.72,596.84,447.93z"/>
				<path class="st42" d="M649.7,445.95l4.75,7.96c0.51,0.77,0.23,1.7-0.69,2.24c-1.49,0.88-2.7,2.65-3.64,2.68
					c-1.69,0.05-4.32-1.73-5.85-2.4c-1.03-0.45-1.83-1.1-1.71-1.96l1.18-7.99c0.01-0.1,0.19-0.14,0.27-0.06l1.82,1.65
					c0.6,0.54,2.21,0.47,2.62-0.18c0.29-0.46,0.96-1.95,0.96-1.95C649.49,445.86,649.65,445.87,649.7,445.95z"/>
			</g>
			<g>
				<path class="st43" d="M624.48,305.71c3.84,6.79,5.87,11.76,8.07,20.38c2.56,10.01,30.24,94.64,31.45,112.84
					c-3.15,0.76-24.09,0.65-26.08,0.54c-6.34-18.16-22.37-77.15-25.09-88.59c-0.42-1.76-3.14-1.37-2.92,0.42
					c1.54,13.07,9.85,68.1,14,88.2c-1.65,0.84-25.66,0.65-27.57,0.42c-2.08-22.41-13.1-107.26,3.54-134.76
					C607.48,304.11,616.77,305.48,624.48,305.71z"/>
				<path class="st44" d="M600.87,308.14c0,0-6.78,16.77-6.78,40.44c0,23.67,7.76,83.64,7.76,83.64"/>
				<line class="st44" x1="647.8" y1="432.22" x2="620.73" y2="307.37"/>
				<path class="st44" d="M615.99,308.03c0,0,0.23,21.68,9.96,19.97"/>
				<path class="st45" d="M599.98,308.58l31.33,23.59c0,0,1.31-12.73-4.26-23.18L599.98,308.58z"/>
				<path class="st44" d="M595.79,329c9.73,1.71,8.17-19.86,8.17-19.86"/>
			</g>
			<path class="st46" d="M614.55,268.69c0,0,1.99-0.57,1.66-0.15s-1.03,0.89-1.74,1.36L614.55,268.69z"/>
			<line class="st44" x1="622.45" y1="432.35" x2="595.4" y2="432.36"/>
			<line class="st44" x1="663.13" y1="432.12" x2="635.19" y2="432.36"/>
			<path class="st47" d="M633.8,346.39c0-0.17,0.17-1.94,0.17-1.94l-0.8,2.55L633.8,346.39z"/>
			<path class="st47" d="M628.78,348.9l-0.56,0.44c0,0,0.58,1.06,0.83,0.98C629.04,350.31,628.63,349.82,628.78,348.9z"/>
			<g>
				<path class="st38" d="M569.84,286.98c0,0,20.48,28.4,25.28,25.01c0,0,5.5-3.89,2.74-19.75c-0.01-1.54-0.01-2.61,0.04-2.85
					c0,0,1.19-15.66,3.76-18.91c0.28-0.36,1.14-1.02,1.02-1.05c-7.86-1.97-10.87,17.8-13.04,26.95c-0.09,0.38-15.1-14.24-15.1-14.24
					s-7.86-10.4-8.41-9.8c-0.79,0.86,2.25,5.5,2.25,5.5s-0.2,0.53-0.79,0.79c-0.6,0.26-0.93,0.66-1.13,1.46
					c-0.2,0.79-0.99,1.26-1.13,1.72C565.2,282.28,568.16,285.76,569.84,286.98z"/>
				<path class="st38" d="M574.27,282.08c0,0-1.59-4.5-2.25-4.37c-0.66,0.13-3.58,1.39-3.51,2.52c0.07,1.13,2.58,0.2,2.58,0.2
					s-0.46,2.52,0.79,2.85C573.15,283.6,574.27,282.08,574.27,282.08z"/>
				<g>
					<path class="st40" d="M570.37,280.22c0,0,0.07,1.13-0.86,1.32c0,0-0.2,1.19-1.39,0.93c0,0,0.33,0.53-0.4,0.66
						C567.72,283.14,570.83,286.51,570.37,280.22z"/>
					<g>
						<path class="st39" d="M570.97,278.06c-0.53,0.43-1.09,0.79-1.65,1.13c-0.26,0.19-0.61,0.32-0.8,0.49
							c-0.1,0.08-0.17,0.18-0.17,0.22c0,0.04,0,0.04,0.06,0.11c0.33,0.33,1,0.42,1.63,0.46c0.15,0.04,0.32-0.05,0.64,0.17
							c0.16,0.15,0.12,0.37,0.1,0.44l-0.07,0.24c-0.12,0.32-0.21,0.63-0.35,0.95l-0.04-0.01l0.18-0.98
							c0.01-0.16,0.11-0.35,0.01-0.45c-0.12-0.09-0.3-0.05-0.46-0.06c-0.65,0-1.37-0.04-1.91-0.49c-0.13-0.12-0.2-0.31-0.15-0.49
							c0.05-0.17,0.18-0.3,0.31-0.4c0.27-0.2,0.58-0.32,0.88-0.48l1.78-0.9L570.97,278.06z"/>
					</g>
					<g>
						<path class="st39" d="M568.33,277.69c0.19-0.01,0.32,0.03,0.45,0.08c0.13,0.05,0.21,0.14,0.31,0.21
							c0.06,0.11,0.15,0.19,0.2,0.31c0.05,0.12,0.08,0.25,0.06,0.43l-0.03,0.03c-0.36-0.33-0.7-0.67-1.02-1.03L568.33,277.69z"/>
					</g>
					<g>
						<path class="st39" d="M566.98,279.36c0.33,0.17,0.61,0.37,0.9,0.56c0.28,0.19,0.53,0.41,0.82,0.6
							c0.24,0.22,0.54,0.43,0.77,0.63c0.11,0.1,0.23,0.17,0.36,0.21c0.13,0.05,0.28,0.05,0.44-0.04l0.03,0.02
							c-0.24,0.31-0.69,0.25-0.98,0.08c-0.31-0.17-0.59-0.38-0.87-0.59c-0.55-0.43-1.05-0.92-1.5-1.45L566.98,279.36z"/>
					</g>
					<g>
						<path class="st39" d="M569.58,281.55c0.05,0.4,0.06,0.91-0.42,1.28c-0.23,0.18-0.56,0.19-0.81,0.13
							c-0.26-0.06-0.47-0.17-0.66-0.3c-0.35-0.3-0.63-0.6-0.86-0.93c-0.23-0.34-0.45-0.69-0.59-1.09l0.03-0.02
							c0.25,0.31,0.52,0.61,0.79,0.91c0.27,0.29,0.55,0.59,0.87,0.82c0.3,0.23,0.72,0.42,1.08,0.22c0.35-0.2,0.45-0.63,0.53-1.01
							L569.58,281.55z"/>
					</g>
					<g>
						<path class="st39" d="M568.2,282.27c0.1,0.26,0.1,0.54,0.03,0.81c-0.04,0.14-0.07,0.28-0.2,0.43
							c-0.05,0.07-0.23,0.17-0.29,0.18c-0.08,0.03-0.16,0.05-0.24,0.06c-0.32,0.08-0.64-0.09-0.83-0.17
							c-0.1-0.07-0.22-0.12-0.35-0.23c-0.12-0.12-0.18-0.26-0.2-0.4l0.03-0.03c0.16,0.2,0.38,0.28,0.62,0.33
							c0.24,0.08,0.47,0.13,0.71,0.12c0.26,0.01,0.42-0.17,0.51-0.4c0.1-0.22,0.17-0.46,0.18-0.7L568.2,282.27z"/>
					</g>
				</g>
			</g>
			<path class="st48" d="M602.68,269.43c0,0-5.09-0.71-7.12,3.44c-2.03,4.15-6.53,22.69-6.53,22.69l-12.54-12.01l-4.86,8.83
				c0,0,17.84,22.52,22.96,20.93C599.7,311.72,602.74,275.09,602.68,269.43z"/>
			<g>
				<path class="st48" d="M601.86,270.31c0.22,0.54-6.31,16.11-6.05,21.37c0.27,5.31,3.89,14.24,3.61,15.04
					c0,0,4.12,3.25,26.84-0.33c6.98-6.11,0.85-26.88-1.5-33.45c0,0-4.47-2.24-6.4-2.38C618.36,270.56,610.82,272.97,601.86,270.31z"
					/>
				<path class="st49" d="M618.42,270.53l-3.22-4.21c0,0-3.83,2.72-9.59,4.74l0.1,1.51c0.19,2.97,3.44,4.69,6.01,3.19
					C614.39,274.19,617.26,272.25,618.42,270.53z"/>
				<path class="st49" d="M604.84,266.09c0,0-0.96,3.65,0.85,5.04l-0.52,1.26c-0.6,1.74-3.17,1.44-3.33-0.4
					c-0.06-0.72-0.06-1.38,0.05-1.89L604.84,266.09z"/>
			</g>
			<g>
				<path class="st0" d="M621.03,353.9l29.35-18.81l-12.18-19.01l-24.02,15.39c-2.95,1.89-3.81,5.81-1.92,8.75L621.03,353.9z"/>
			</g>
			<g>
				<path class="st50" d="M631.44,319.82c0,0,4.73,2.2,1.07,15.61c-0.19,0.71-0.36,1.52-0.22,2.24l0.82,5.77
					c0.12,0.62,0.21,1.45-0.32,1.8c-0.66,0.44-4.39,3.87-4.85,4.02c-0.92,0.31,0.08-4.25-0.07-6.65c-0.03-0.43-0.13,1.52-0.19,2.37
					l-0.11,1.87c-1.12-0.51-1.09-2.66-1.27-3.39c-0.23-0.97-0.04-1.6,0.07-1.83c0.51-1.06,1.48-3.17,1.63-5.07
					c0.09-1.12-0.69-5.26-1.34-12.97L631.44,319.82z"/>
				<path class="st38" d="M632.04,287.17c8.77,49,3.07,58.3,2.5,58.69c-0.72,0.48-4.81,4.24-5.31,4.41
					c-1.01,0.34,0.09-4.66-0.07-7.29c-0.03-0.47-0.14,1.67-0.2,2.6l-0.12,2.05c-1.22-0.56-1.2-2.92-1.39-3.71
					c-0.26-1.07-0.05-1.75,0.08-2.01c0.56-1.16,1.62-3.48,1.79-5.56c0.1-1.22-8.22-41.02-9.68-46.86
					c-1.99-7.95,0.51-17.07,3.31-17.38C626.41,271.73,631.32,283.11,632.04,287.17z"/>
				<path class="st48" d="M638.2,333.53c-0.35-1.5,1.53-30.09-4.84-48.79c-2.85-8.36-6.95-13.02-10.42-12.64
					c-2.8,0.31-5.3,9.44-3.31,17.38c1.46,5.85,4.53,31.95,7.1,45.28L638.2,333.53z"/>
			</g>
		</g>
		<g>
			<path class="st0" d="M626.61,233.02l5.84-5.84h22c4.48,0,8.11-3.63,8.11-8.11v-1.76c0-4.48-3.63-8.11-8.11-8.11h-19.74
				c-4.48,0-8.11,3.63-8.11,8.11V233.02z"/>
			<g>
				<path class="st51" d="M650.88,217.97c0,1.12,0.91,2.02,2.02,2.02s2.02-0.91,2.02-2.02c0-1.12-0.91-2.02-2.02-2.02
					S650.88,216.85,650.88,217.97z"/>
				<path class="st51" d="M643.46,217.97c0,1.12,0.91,2.02,2.02,2.02s2.02-0.91,2.02-2.02c0-1.12-0.91-2.02-2.02-2.02
					S643.46,216.85,643.46,217.97z"/>
				<path class="st51" d="M636.04,217.97c0,1.12,0.91,2.02,2.02,2.02c1.12,0,2.02-0.91,2.02-2.02c0-1.12-0.91-2.02-2.02-2.02
					C636.95,215.94,636.04,216.85,636.04,217.97z"/>
			</g>
		</g>
	</g>
	<g>
		<g>
			<ellipse class="st5" cx="274.61" cy="441.61" rx="47.08" ry="2.71"/>
			<g>
				<polygon class="st52" points="316,434.07 314.56,431.22 305.97,431.53 305.77,434.07 309.81,441.07 317.07,435.47 				"/>
				<path class="st53" d="M310.76,431.51l-0.36,6.62c0,0-2.23-1.27-4.84-3.6l0.36-3.75L310.76,431.51z"/>
				<path class="st43" d="M316.52,433.97c0,0-2.52-0.05-5.46,2.18c-1.75,1.33-4.39-1.41-5.2-2.12c-0.16-0.14-0.39-0.01-0.42,0.24
					l-1.02,9.25h25.57c0.3,0,0.54-0.31,0.54-0.7v-1.95c0-0.3-0.15-0.57-0.37-0.66L316.52,433.97z"/>
				<line class="st54" x1="317.95" y1="434.46" x2="313.84" y2="436.84"/>
				<line class="st54" x1="319.75" y1="435.37" x2="315.63" y2="437.76"/>
			</g>
			<g>
				<polygon class="st52" points="274.34,434.07 272.9,431.22 265.02,430.04 264.12,434.07 268.16,441.07 275.42,435.47 				"/>
				<path class="st53" d="M268.25,431.32l0.72,6.25c0,0-2.23-1.27-4.84-3.6l0.72-3.2L268.25,431.32z"/>
				<path class="st43" d="M274.86,433.97c0,0-2.52-0.05-5.46,2.18c-1.75,1.33-4.39-1.41-5.2-2.12c-0.16-0.14-0.39-0.01-0.42,0.24
					l-1.02,9.25h25.57c0.3,0,0.54-0.31,0.54-0.7v-1.95c0-0.3-0.15-0.57-0.37-0.66L274.86,433.97z"/>
				<line class="st54" x1="276.88" y1="434.64" x2="272.76" y2="437.02"/>
				<line class="st54" x1="278.67" y1="435.56" x2="274.56" y2="437.94"/>
			</g>
			<path class="st37" d="M305.43,225.42c1.78-2.83,2.36-7.06-0.75-8.94c-1.62-0.98-3.72-0.76-5.16,0.44
				c-0.67,0.55-1.17,1.26-1.58,2.02c-0.63-0.89-1.56-1.5-2.72-1.47c-0.99,0.02-2.14,0.78-2.87,1.77c-0.99-0.31-2.13-0.34-2.98-0.13
				c-2.2,0.55-2.59,3.44-1.37,5.13c-1.56,2.09-2.01,5.02,0.21,12.33l0.02,0.08l3.02,1.63l0.09-0.17l0,0l0,0l0.09-0.17l-0.23-0.13
				l3.01-9.74c0.39-0.27,2.89-1.93,4.2-0.91c1.33,1.03,2.86,2.03,4.05,1.55c0.53-0.21,1.01-0.74,1.36-1.22
				C304.59,227.02,305.1,226.28,305.43,225.42z M304.11,217.49c1.16,0.7,1.63,1.82,1.66,3.06c-0.52-2.43-2.82-3.61-5.12-2.99
				C301.69,216.92,303,216.82,304.11,217.49z M289.23,236.64c0.35,0.11,0.86,0.34,1.32,0.81l-0.66-0.35L289.23,236.64z"/>
			<g>
				<path class="st55" d="M314.4,322.13c0,0,3.29,39.33,3.6,50.2c0.31,10.87-1.87,59.31-1.87,59.31l-13.68,0.24
					c0,0-9.55-81.27-22.84-107.48L314.4,322.13z"/>
				<path class="st54" d="M297.81,324.2c0,0,9.36,45.43,9.36,52.41s1.38,54.91,1.38,54.91"/>
				<line class="st54" x1="301.75" y1="426.58" x2="316.25" y2="426.58"/>
			</g>
			<g>
				<path class="st48" d="M314.43,322.13c0,0-7.6,32.78-15.32,55.98c-6.24,18.74-20.06,54.64-20.06,54.64l-15.34-0.38l13.32-53.7
					c0.71-2.8,1.16-5.66,1.34-8.54c0.68-10.89-1.55-32.9-2.49-47L314.43,322.13z"/>
				<g>
					<path class="st56" d="M287.79,322.74c0,0,3.59,42.49,0.36,49.1c-3.23,6.61-18.97,60.42-18.97,60.42"/>
					<line class="st56" x1="265.25" y1="427.5" x2="280.64" y2="427.5"/>
					<line class="st56" x1="300.68" y1="322.37" x2="289.23" y2="337.39"/>
				</g>
			</g>
			<g>
				<path class="st52" d="M296.05,260.25c0,0-0.44-3.53,2.83-4.04c3.26-0.51,12.06-2.84,34.42,4.79c0,0,3.87-21.65,3.91-23.4
					c0.1-4.56,1.54-10.47,5.07-13.6c0.29-0.26,0.5,11.3,0.63,17.47c0,0,2.98,31.06-0.65,34.18S292.44,270.89,296.05,260.25z"/>
				<path class="st43" d="M302.66,254.88c0,0-12.62-2.09-12.25,7.75c0.37,9.84,24.96,16.52,31.64,14.92l-2.07-21.86L302.66,254.88z"
					/>
				<path class="st57" d="M321.95,277.23c-1.96,2.35-21.16-2.59-23.27-5.79c0,0-0.33-10.75,0.49-10.97
					C307.51,258.21,321.95,277.23,321.95,277.23z"/>
			</g>
			<g>
				<path class="st43" d="M284.71,253.77c0,0-17.17,1.75-18.26,15.98c-1.08,14.22,7.8,53.61,7.8,53.61l43.02-1.37l-2.35-48.88
					c-0.17-3.63-1.29-7.14-3.24-10.17c-1.8-2.8-3.9-5.98-5.09-6.13l-19.26-4.95L284.71,253.77z"/>
				<path class="st58" d="M281.16,259.12c-10.43-4.19-14.17,3.51-14.71,10.62c-1.08,14.22,7.8,53.61,7.8,53.61l43.02-1.37"/>
			</g>
			<path class="st17" d="M303.89,303.33c0.1,0.75-0.02,1.38-0.27,1.42c-0.24,0.03-0.52-0.55-0.62-1.3c-0.1-0.75,0.02-1.38,0.27-1.42
				C303.52,302,303.8,302.58,303.89,303.33z"/>
			<g>
				<path class="st52" d="M290.11,240.9l-1,9.67l9.96,8.31l1.47-4.31l-0.77-7.99l-8.03-7.27c0,0-1.24,0.88-1.39,1.2
					C290.19,240.82,290.11,240.9,290.11,240.9z"/>
				<path class="st37" d="M291.74,239.3l8.03,7.27l0.57,4.75c0,0-7.29-2.01-7.55-8.03"/>
			</g>
			<g>
				<g>
					<path class="st17" d="M300.55,265.12c0.1,0.75-0.02,1.38-0.27,1.42c-0.24,0.03-0.52-0.55-0.62-1.3
						c-0.1-0.75,0.02-1.38,0.27-1.42C300.18,263.79,300.45,264.37,300.55,265.12z"/>
					<path class="st17" d="M301.22,272.76c0.1,0.75-0.02,1.38-0.27,1.42c-0.24,0.03-0.52-0.55-0.62-1.3
						c-0.1-0.75,0.02-1.38,0.27-1.42C300.85,271.43,301.12,272.01,301.22,272.76z"/>
					<path class="st17" d="M301.89,280.4c0.1,0.75-0.02,1.38-0.27,1.42c-0.24,0.03-0.52-0.55-0.62-1.3
						c-0.1-0.75,0.02-1.38,0.27-1.42C301.52,279.07,301.79,279.66,301.89,280.4z"/>
					<path class="st17" d="M302.56,288.05c0.1,0.75-0.02,1.38-0.27,1.42c-0.24,0.03-0.52-0.55-0.62-1.3
						c-0.1-0.75,0.02-1.38,0.27-1.42C302.18,286.72,302.46,287.3,302.56,288.05z"/>
					<path class="st17" d="M303.23,295.69c0.1,0.75-0.02,1.38-0.27,1.42c-0.24,0.03-0.52-0.55-0.62-1.3
						c-0.1-0.75,0.02-1.38,0.27-1.42C302.85,294.36,303.13,294.94,303.23,295.69z"/>
					<path class="st17" d="M304.56,310.97c0.1,0.75-0.02,1.38-0.27,1.42c-0.24,0.03-0.52-0.55-0.62-1.3
						c-0.1-0.75,0.02-1.38,0.27-1.42S304.47,310.22,304.56,310.97z"/>
					<path class="st17" d="M305.23,318.62c0.1,0.75-0.02,1.38-0.27,1.42c-0.24,0.03-0.52-0.55-0.62-1.3
						c-0.1-0.75,0.02-1.38,0.27-1.42C304.86,317.29,305.14,317.87,305.23,318.62z"/>
				</g>
				<g>
					<polygon class="st17" points="288.8,249.85 283.49,252.33 296.76,263.59 299.07,258.88 					"/>
					<path class="st17" d="M300.54,253.53c0.23,0.08,2.32,1.52,2.32,1.52l0.08,7.11l-3.86-3.28L300.54,253.53z"/>
				</g>
			</g>
			<g>
				<g>
					<path class="st43" d="M312.2,302.86l9.57-30.04c0.53-1.67,1.73-3.01,3.3-3.69l19.6-8.47c0.58-0.25,1.18,0.32,0.97,0.94
						l-9.67,29.43c-0.52,1.58-1.65,2.87-3.13,3.56l-19.65,9.18C312.61,304.05,312,303.48,312.2,302.86z"/>
					<path class="st17" d="M313.85,304.62l9.57-30.04c0.53-1.67,1.73-3.01,3.3-3.69l19.6-8.47c0.58-0.25,1.18,0.32,0.97,0.94
						l-9.67,29.43c-0.52,1.58-1.65,2.87-3.13,3.56l-19.65,9.18C314.26,305.81,313.65,305.24,313.85,304.62z"/>
					<polygon class="st59" points="318.75,282.63 325.97,284.77 316.85,288.46 					"/>
					<line class="st60" x1="327.23" y1="276.21" x2="344.2" y2="268.95"/>
					<line class="st60" x1="327.23" y1="279.41" x2="341.25" y2="273.62"/>
					<polygon class="st0" points="319.64,297.47 337.79,289.52 336.6,293.32 318.12,301.61 					"/>
				</g>
				<path class="st52" d="M326.04,287.92c-1.06,0.95-20.08,20.47-29.21,29.26c-2.46,2.37-6.4,1.79-8.13-1.19l-16.02-26.85
					l15.18-11.78c0.11,0.17,8.04,13.65,9.87,20.42c0.6,2.22,1.64,2.05,3.45,0.95l13.85-8.54c0,0-0.02-2.42,0.28-3.34
					c0.59-1.74,3.36-4.08,3.36-4.08l-1.2,3.69c-0.22,0.62-0.93,1.07,0.19,1.21l8.8-6.52c0,0,0.8-0.06,0.04,0.8
					c-0.76,0.86-1.58,1.77-1.48,1.84c0.11,0.06,2.51-1.62,2.62-0.97c0.11,0.65-1.96,2.2-1.88,2.27c0.08,0.06,2.34-1.79,2.47-1.19
					c0.13,0.6-1.58,1.77-1.67,2.01c-0.08,0.24,1.86-1.25,1.94-0.93C328.6,285.28,326.65,287.37,326.04,287.92z"/>
				<path class="st43" d="M283.85,265.41c0,0-4.33-12.14-12.67-7.03c-8.34,5.11-2.16,30.04,2.47,35.16l17.92-12.46L283.85,265.41z"
					/>
			</g>
			<g>
				<path class="st52" d="M290.96,236.61c-0.1,0.26-0.41,0.33-0.6,0.14c-0.65-0.64-1.96-1.52-2.42,1.03
					c-0.63,3.47,2.99,2.87,3.28,3.34c0.59,0.95,2.46,4.13,5.26,5.37c1.71,0.75,4.23,0.87,6.1-0.92c1.86-1.79,2.7-0.56,1.92-19.69
					c0,0-0.85,1.65-2.08,2.07c-1.23,0.42-3.19-1.28-4.59-1.67c-1.14-0.32-3.34-1.15-4.68,2.8
					C292.51,230.91,291.53,235.11,290.96,236.61z"/>
				<g>
					<path class="st61" d="M303.84,235.46c0,0-0.31-1.61-0.98,0.06"/>
					<path class="st61" d="M298.37,235.56l-8.67,0.23c0,0-1.67-0.17-2.08,1.3"/>
					<ellipse class="st62" cx="305.14" cy="234.7" rx="1.34" ry="3.08"/>
					<ellipse class="st61" cx="300.58" cy="235.06" rx="2.27" ry="3.69"/>
				</g>
				<g>
					<path class="st17" d="M304.42,239.65c0,0-1.12,0.56-3.87,0.3c0,0,1.48,2,2.56,1.61C304.19,241.18,304.42,239.65,304.42,239.65z
						"/>
					<path class="st53" d="M288.47,237.53l1.91,1.44C290.39,238.97,289.67,235.48,288.47,237.53z"/>
					<path class="st37" d="M302.17,235.6c0,0.42-0.17,0.76-0.37,0.76c-0.2,0-0.37-0.34-0.37-0.76c0-0.42,0.17-0.76,0.37-0.76
						C302.01,234.84,302.17,235.18,302.17,235.6z"/>
					<path class="st37" d="M304.58,235.23c0,0.42-0.17,0.76-0.37,0.76c-0.2,0-0.37-0.34-0.37-0.76s0.17-0.76,0.37-0.76
						C304.41,234.47,304.58,234.81,304.58,235.23z"/>
					<path class="st37" d="M299.06,232.34c-0.55,0.38,0.31-1.35,1.05-1.54c0.74-0.19,1.48,0.18,1.64,0.84
						C301.76,231.64,300.38,231.42,299.06,232.34z"/>
					<path class="st37" d="M304.69,232.15c-0.78-0.1-1.35,0.04-1.35,0.04c0.1-0.62,0.68-1.06,1.36-1.08"/>
					<path class="st53" d="M303.45,235.2l1.13,3.2c0.02,0.05-0.01,0.11-0.07,0.11l-1.33,0.1c-0.05,0-0.08-0.04-0.08-0.09l0.2-3.31
						C303.3,235.14,303.42,235.12,303.45,235.2z"/>
				</g>
			</g>
		</g>
		<g>
			<path class="st48" d="M280.37,214.57l-5.85-5.85h-22.04c-4.49,0-8.12-3.64-8.12-8.12v-1.76c0-4.49,3.64-8.12,8.12-8.12h19.77
				c4.49,0,8.12,3.64,8.12,8.12V214.57z"/>
			<g>
				<circle class="st51" cx="254.03" cy="199.49" r="2.03"/>
				<path class="st51" d="M263.49,199.49c0,1.12-0.91,2.03-2.03,2.03c-1.12,0-2.03-0.91-2.03-2.03c0-1.12,0.91-2.03,2.03-2.03
					C262.58,197.46,263.49,198.37,263.49,199.49z"/>
				<circle class="st51" cx="268.89" cy="199.49" r="2.03"/>
			</g>
		</g>
	</g>
	<g>
		<g>
			<g>
				
					<ellipse transform="matrix(0.54 -0.8417 0.8417 0.54 48.0976 721.7629)" class="st63" cx="684.34" cy="316.88" rx="17.35" ry="17.35"/>
				<g>
					<path class="st5" d="M689.34,334.18h-21.56c-2.06,0-3.72-1.67-3.72-3.72V302c0-2.06,1.67-3.72,3.72-3.72h21.56
						c2.06,0,3.72,1.67,3.72,3.72v28.46C693.07,332.51,691.4,334.18,689.34,334.18z"/>
					<g>
						<path class="st64" d="M686.31,331.23h-17.49c-0.64,0-1.16-0.5-1.16-1.12v-27.9c0-0.62,0.52-1.12,1.16-1.12h20
							c0.64,0,1.16,0.5,1.16,1.12v25.47C689.52,328.13,686.76,330.8,686.31,331.23z"/>
						<path class="st65" d="M689.55,327.53l-3.61,3.61l-0.09-2.29c-0.03-0.79,0.62-1.43,1.4-1.4L689.55,327.53z"/>
						<g>
							<g>
								<path class="st5" d="M670.7,301.92L670.7,301.92c-0.62,0-1.13-0.51-1.13-1.13v-3.46c0-0.62,0.51-1.13,1.13-1.13l0,0
									c0.62,0,1.13,0.51,1.13,1.13v3.46C671.83,301.41,671.33,301.92,670.7,301.92z"/>
								<path class="st66" d="M670.7,303.43L670.7,303.43c-0.62,0-1.13-0.51-1.13-1.13v-3.46c0-0.62,0.51-1.13,1.13-1.13l0,0
									c0.62,0,1.13,0.51,1.13,1.13v3.46C671.83,302.92,671.33,303.43,670.7,303.43z"/>
							</g>
							<g>
								<path class="st5" d="M677.94,301.92L677.94,301.92c-0.62,0-1.13-0.51-1.13-1.13v-3.46c0-0.62,0.51-1.13,1.13-1.13l0,0
									c0.62,0,1.13,0.51,1.13,1.13v3.46C679.06,301.41,678.56,301.92,677.94,301.92z"/>
								<path class="st66" d="M677.94,303.43L677.94,303.43c-0.62,0-1.13-0.51-1.13-1.13v-3.46c0-0.62,0.51-1.13,1.13-1.13l0,0
									c0.62,0,1.13,0.51,1.13,1.13v3.46C679.06,302.92,678.56,303.43,677.94,303.43z"/>
							</g>
							<g>
								<path class="st5" d="M685.17,301.92L685.17,301.92c-0.62,0-1.13-0.51-1.13-1.13v-3.46c0-0.62,0.51-1.13,1.13-1.13l0,0
									c0.62,0,1.13,0.51,1.13,1.13v3.46C686.3,301.41,685.79,301.92,685.17,301.92z"/>
								<path class="st66" d="M685.17,303.43L685.17,303.43c-0.62,0-1.13-0.51-1.13-1.13v-3.46c0-0.62,0.51-1.13,1.13-1.13l0,0
									c0.62,0,1.13,0.51,1.13,1.13v3.46C686.3,302.92,685.79,303.43,685.17,303.43z"/>
							</g>
						</g>
						<g>
							<path class="st67" d="M672.27,316.04c0,0.66-0.54,1.2-1.2,1.2c-0.66,0-1.2-0.54-1.2-1.2c0-0.66,0.54-1.2,1.2-1.2
								C671.73,314.84,672.27,315.38,672.27,316.04z"/>
							<path class="st67" d="M672.27,321.17c0,0.66-0.54,1.2-1.2,1.2c-0.66,0-1.2-0.54-1.2-1.2c0-0.66,0.54-1.2,1.2-1.2
								C671.73,319.97,672.27,320.51,672.27,321.17z"/>
							<path class="st67" d="M672.27,326.3c0,0.66-0.54,1.2-1.2,1.2c-0.66,0-1.2-0.54-1.2-1.2c0-0.66,0.54-1.2,1.2-1.2
								C671.73,325.1,672.27,325.64,672.27,326.3z"/>
							<g>
								<path class="st68" d="M684.91,316.42h-9.64c-0.27,0-0.49-0.22-0.49-0.49l0,0c0-0.27,0.22-0.49,0.49-0.49h9.64
									c0.27,0,0.49,0.22,0.49,0.49l0,0C685.39,316.2,685.18,316.42,684.91,316.42z"/>
								<path class="st68" d="M684.91,321.7h-9.64c-0.27,0-0.49-0.22-0.49-0.49l0,0c0-0.27,0.22-0.49,0.49-0.49h9.64
									c0.27,0,0.49,0.22,0.49,0.49l0,0C685.39,321.48,685.18,321.7,684.91,321.7z"/>
								<path class="st68" d="M684.9,326.97h-9.64c-0.27,0-0.49-0.22-0.49-0.49l0,0c0-0.27,0.22-0.49,0.49-0.49h9.64
									c0.27,0,0.49,0.22,0.49,0.49l0,0C685.39,326.75,685.18,326.97,684.9,326.97z"/>
							</g>
							<path class="st69" d="M671.12,316.53c-0.08,0-0.15-0.04-0.21-0.1l-1.26-1.45c-0.11-0.13-0.11-0.34,0-0.47
								c0.11-0.13,0.3-0.13,0.41,0l1.05,1.21l1.83-2.1c0.11-0.13,0.3-0.13,0.41,0c0.11,0.13,0.11,0.34,0,0.47l-2.03,2.34
								C671.27,316.49,671.2,316.53,671.12,316.53z"/>
							<path class="st69" d="M671.12,321.67c-0.08,0-0.15-0.04-0.21-0.1l-1.26-1.45c-0.11-0.13-0.11-0.34,0-0.47
								c0.11-0.13,0.3-0.13,0.41,0l1.05,1.21l1.83-2.1c0.11-0.13,0.3-0.13,0.41,0c0.11,0.13,0.11,0.34,0,0.47l-2.03,2.34
								C671.27,321.64,671.2,321.67,671.12,321.67z"/>
						</g>
					</g>
				</g>
				<g>
					<g>
						<g>
							
								<ellipse transform="matrix(0.973 -0.2309 0.2309 0.973 -54.4655 167.296)" class="st70" cx="687.65" cy="316.39" rx="8.38" ry="8.38"/>
							
								<ellipse transform="matrix(0.973 -0.2309 0.2309 0.973 -54.4655 167.296)" class="st71" cx="687.65" cy="316.39" rx="8.38" ry="8.38"/>
							<line class="st72" x1="693.78" y1="322.67" x2="700.3" y2="328.57"/>
						</g>
					</g>
				</g>
			</g>
		</g>
		<g>
			<g>
				<circle class="st73" cx="658" cy="251.61" r="13.04"/>
			</g>
			<g>
				<rect x="651.89" y="254.1" class="st74" width="4.71" height="4.71"/>
				<polyline class="st75" points="652.87,255.84 653.71,257.38 658.25,252.31 				"/>
			</g>
			<g>
				<rect x="651.89" y="244.68" class="st74" width="4.71" height="4.71"/>
				<polyline class="st75" points="652.87,246.42 653.71,247.96 658.25,242.89 				"/>
			</g>
			<g class="st76">
				<defs>
					<circle id="SVGID_9_" class="st76" cx="658" cy="251.61" r="13.04"/>
				</defs>
				<clipPath id="SVGID_10_">
					<use xlink:href="#SVGID_9_"  style="overflow:visible;"/>
				</clipPath>
				<path class="st77" d="M671.51,247.73h-11c-0.48,0-0.87-0.39-0.87-0.87l0,0c0-0.48,0.39-0.87,0.87-0.87h11
					c0.48,0,0.87,0.39,0.87,0.87l0,0C672.39,247.34,672,247.73,671.51,247.73z"/>
				<path class="st77" d="M672.37,257.09h-11.83c-0.5,0-0.9-0.4-0.9-0.9l0,0c0-0.5,0.4-0.9,0.9-0.9h11.83c0.5,0,0.9,0.4,0.9,0.9l0,0
					C673.27,256.69,672.87,257.09,672.37,257.09z"/>
			</g>
		</g>
	</g>
</g>
</svg>
